<svg xmlns="http://www.w3.org/2000/svg" width="72" height="72" viewBox="611 3964.95 72 72"><g data-name="CompositeLayer"><path d="M611 4000.901a36 36 0 1 1 0 .098z" stroke-linejoin="round" stroke-linecap="round" stroke-width="1.94594" stroke="#040c36" fill="transparent" data-name="Ellipse 9"/><path d="m660.115 3998.167-10.7 10.696c-.66.664-1.55.913-2.415.832-.864.08-1.754-.168-2.418-.832l-10.697-10.696a3.032 3.032 0 0 1 0-4.282 3.029 3.029 0 0 1 4.279 0l8.836 8.837 8.834-8.837a3.032 3.032 0 0 1 4.281 0 3.032 3.032 0 0 1 0 4.282Z" fill="#040c36" fill-rule="evenodd" data-name="Icon Chevron down"/></g></svg>