<svg xmlns="http://www.w3.org/2000/svg" width="35.826" height="36" viewBox="0 0 35.826 36"><g transform="translate(-4.8 -5)"><path d="M8.378,47.8a24.174,24.174,0,0,1,2.147-2.3c2.719-2.3,5.581-2.3,8.229.2A31.507,31.507,0,0,1,21.4,48.9c1.288,1.3,2.5,3,3.792,4.2,5.724,4.7,11.592,1.3,15.027-4.8a3.428,3.428,0,0,0-.215-3.5,1.375,1.375,0,0,0-2.361.2,5.581,5.581,0,0,0-.5.8c-1.646,2.5-3.578,4.3-6.082,4.3-2,.2-3.792-1-5.51-2.8-1.073-1.2-2-2.5-3.005-3.8-2.29-2.8-4.794-4.7-7.728-4.8-3.435-.2-6.44,2-8.944,5.3A15.547,15.547,0,0,0,4.8,46.2v.5C5.659,49.3,6.875,49.7,8.378,47.8Z" transform="translate(0 -14.301)" fill="#ccc"/><path d="M8.455,14.2a10.162,10.162,0,0,1,3.426-3.3,4.737,4.737,0,0,1,5.853.3,22.741,22.741,0,0,1,3.212,3.3c1.214,1.3,2.356,3,3.569,4.2,5.925,5.5,11.992,2.2,15.7-4.2a3.407,3.407,0,0,0-.214-3.5,1.5,1.5,0,0,0-2.5.2c-.143.2-.214.5-.5.7-3.426,5-7.353,6-11.421,1.8-.714-.8-1.57-2-2.356-3A13.427,13.427,0,0,0,16.95,5.5c-.642-.2-1.214-.3-1.785-.5h-.928a11.907,11.907,0,0,0-1.785.5C9.811,6.3,7.6,8.3,5.671,11.2A11.989,11.989,0,0,0,5.1,12.7v.5C5.742,15.8,7.027,16.2,8.455,14.2Z" fill="#ccc"/><path d="M8.378,31a11.474,11.474,0,0,1,3.364-3.2,4.868,4.868,0,0,1,5.94.3,17.324,17.324,0,0,1,3.077,3.2c1.217,1.3,2.147,2.8,3.364,4a9.584,9.584,0,0,0,6.942,3.2c3.722-.2,6.656-2.8,9.089-6.8a3.445,3.445,0,0,0-.143-3.7,1.476,1.476,0,0,0-2.5.3A12.526,12.526,0,0,1,36.29,30c-3.364,4.2-7.014,4.5-10.592.8a27.827,27.827,0,0,1-2.5-3,35.275,35.275,0,0,0-2.5-2.8,8.792,8.792,0,0,0-6.942-2.8c-3.077.3-5.726,2.3-7.873,5.3A15.546,15.546,0,0,0,4.8,29.7v.5C5.659,32.7,6.947,33,8.378,31Z" transform="translate(0 -7.204)" fill="#ccc"/></g></svg>