<svg xmlns="http://www.w3.org/2000/svg" width="100" height="13.1" viewBox="650 26 100 13.1"><g data-name="logo"><path d="M650 26.1c.3 1.1 1.3 2.3 2.6 2.6h4.1l.2.1v10.3h2.5V28.8l.2-.1h4.1c1.4-.4 2.3-1.5 2.6-2.6H650Z" fill="#fff" fill-rule="evenodd" data-name="Path 11"/><path d="M727.8 39.1c1.3-.5 2-1.5 2.2-2.6h-11.3V26h-2.5v13h11.6v.1Z" fill="#fff" fill-rule="evenodd" data-name="Path 12"/><path d="M697.3 28.7h9c1.3-.4 2.5-1.4 2.7-2.6h-14.2v7.7h11.6v2.7h-9.1c-1.4.4-2.6 1.4-3.2 2.6H709v-7.8h-11.7v-2.6Z" fill="#fff" fill-rule="evenodd" data-name="Path 13"/><path d="M735.4 31.3v7.8h2.6v-5.2h9.1v5.2h2.6v-7.8h-14.3Z" fill="#fff" fill-rule="evenodd" data-name="Path 14"/><path d="M675.2 28.7h9.7c1.3-.3 2.4-1.5 2.6-2.6h-15c.4 1.2 1.4 2.3 2.7 2.6" fill="#fff" fill-rule="evenodd" data-name="Path 15"/><path d="M675.2 33.9h9.7c1.3-.3 2.4-1.5 2.6-2.6h-15c.4 1.1 1.4 2.3 2.7 2.6" fill="#fff" fill-rule="evenodd" data-name="Path 16"/><path d="M675.2 39.1h9.7c1.3-.3 2.4-1.5 2.6-2.6h-15c.4 1.2 1.4 2.4 2.7 2.6" fill="#fff" fill-rule="evenodd" data-name="Path 17"/><path d="M737.7 28.7h9.7c1.3-.3 2.4-1.5 2.6-2.6h-15c.3 1.2 1.3 2.4 2.7 2.6" fill="#fff" fill-rule="evenodd" data-name="Path 18"/></g></svg>